<svg width="28" height="28" viewBox="0 0 28 28" fill="none" xmlns="http://www.w3.org/2000/svg">
<g id="Group">
<path id="Vector" d="M0 8.75H6.2615V28H0V8.75ZM23.317 8.97575C23.2505 8.95475 23.1875 8.932 23.1175 8.91275C23.0335 8.89373 22.9488 8.87739 22.8637 8.86375C22.494 8.78816 22.1176 8.75005 21.7402 8.75C18.0898 8.75 15.7745 11.4048 15.0115 12.4303V8.75H8.75V28H15.0115V17.5C15.0115 17.5 19.7435 10.9095 21.7402 15.75V28H28V15.0097C27.9974 13.6275 27.5362 12.2852 26.6887 11.1932C25.8412 10.1012 24.6554 9.32131 23.317 8.97575Z" fill="#1976D2"/>
<path id="Vector_2" d="M3.0625 6.125C4.75387 6.125 6.125 4.75387 6.125 3.0625C6.125 1.37113 4.75387 0 3.0625 0C1.37113 0 0 1.37113 0 3.0625C0 4.75387 1.37113 6.125 3.0625 6.125Z" fill="#1976D2"/>
</g>
</svg>
